# xmcd
#
# Track frame offsets:
#	150
#	17562
#	35390
#	51752
#	70095
#	89032
#	107645
#	125622
#	140885
#	159950
#	178005
#	196325
#	215622
#	231717
#	247850
#	269850
#	289155
#	308317
#
# Disc length: 4298 seconds
#
# Revision: 1
# Processed by: cddbd v1.4PL0 Copyright (c) Steve Scherf et al.
# Submitted via: EasyCDDAExtractor 6.0.0.1
#
DISCID=0d10c812
DTITLE=젝스키스 - 4집 Com' Back
DYEAR=1999
DGENRE=Dance
TTITLE0=Com' back
TTITLE1=예감
TTITLE2=Love forever
TTITLE3=비
TTITLE4=Smile again (remix)
TTITLE5=Summer in Love
TTITLE6=A+
TTITLE7=뫼비우스의 띠(Original)
TTITLE8=기억해 줄래 (Remix)
TTITLE9=Rigoletto (여자의 마음)
TTITLE10=그녀가 남기고 간 선물
TTITLE11=Missing You
TTITLE12=적
TTITLE13=그대로 멈춰
TTITLE14=Com' back (Remix)
TTITLE15=Summer in Love (remix)
TTITLE16=Smile again (original)
TTITLE17=뫼비우스의 띠 (remix)
EXTD=
EXTT0=
EXTT1=
EXTT2=
EXTT3=
EXTT4=
EXTT5=
EXTT6=
EXTT7=
EXTT8=
EXTT9=
EXTT10=
EXTT11=
EXTT12=
EXTT13=
EXTT14=
EXTT15=
EXTT16=
EXTT17=
PLAYORDER=
